<?xml version="1.0" encoding="UTF-8" standalone="no"?>
<svg
   xmlns:dc="http://purl.org/dc/elements/1.1/"
   xmlns:cc="http://creativecommons.org/ns#"
   xmlns:rdf="http://www.w3.org/1999/02/22-rdf-syntax-ns#"
   xmlns:svg="http://www.w3.org/2000/svg"
   xmlns="http://www.w3.org/2000/svg"
   xmlns:sodipodi="http://sodipodi.sourceforge.net/DTD/sodipodi-0.dtd"
   xmlns:inkscape="http://www.inkscape.org/namespaces/inkscape"
   version="1.1"
   id="Capa_1"
   x="0px"
   y="0px"
   width="41.336px"
   height="41.336px"
   viewBox="0 0 41.336 41.336"
   style="enable-background:new 0 0 41.336 41.336;"
   xml:space="preserve"
   sodipodi:docname="delete.svg"
   inkscape:version="0.92.4 (5da689c313, 2019-01-14)"><metadata
   id="metadata41"><rdf:RDF><cc:Work
       rdf:about=""><dc:format>image/svg+xml</dc:format><dc:type
         rdf:resource="http://purl.org/dc/dcmitype/StillImage" /><dc:title></dc:title></cc:Work></rdf:RDF></metadata><defs
   id="defs39"><marker
   inkscape:stockid="Arrow2Sstart"
   orient="auto"
   refY="0.0"
   refX="0.0"
   id="marker7857"
   style="overflow:visible"
   inkscape:isstock="true"><path
     id="path7855"
     style="fill-rule:evenodd;stroke-width:0.625;stroke-linejoin:round;stroke:#ff0000;stroke-opacity:1;fill:#ff0000;fill-opacity:1"
     d="M 8.7185878,4.0337352 L -2.2072895,0.016013256 L 8.7185884,-4.0017078 C 6.9730900,-1.6296469 6.9831476,1.6157441 8.7185878,4.0337352 z "
     transform="scale(0.3) translate(-2.3,0)" /></marker><marker
   inkscape:stockid="Arrow2Mstart"
   orient="auto"
   refY="0.0"
   refX="0.0"
   id="Arrow2Mstart"
   style="overflow:visible"
   inkscape:isstock="true"><path
     id="path984"
     style="fill-rule:evenodd;stroke-width:0.625;stroke-linejoin:round;stroke:#ff0000;stroke-opacity:1;fill:#ff0000;fill-opacity:1"
     d="M 8.7185878,4.0337352 L -2.2072895,0.016013256 L 8.7185884,-4.0017078 C 6.9730900,-1.6296469 6.9831476,1.6157441 8.7185878,4.0337352 z "
     transform="scale(0.6) translate(0,0)" /></marker><marker
   inkscape:stockid="Arrow2Sstart"
   orient="auto"
   refY="0.0"
   refX="0.0"
   id="marker7659"
   style="overflow:visible"
   inkscape:isstock="true"><path
     id="path7657"
     style="fill-rule:evenodd;stroke-width:0.625;stroke-linejoin:round;stroke:#ff0000;stroke-opacity:1;fill:#ff0000;fill-opacity:1"
     d="M 8.7185878,4.0337352 L -2.2072895,0.016013256 L 8.7185884,-4.0017078 C 6.9730900,-1.6296469 6.9831476,1.6157441 8.7185878,4.0337352 z "
     transform="scale(0.3) translate(-2.3,0)" /></marker><marker
   inkscape:stockid="Arrow2Sstart"
   orient="auto"
   refY="0.0"
   refX="0.0"
   id="marker7571"
   style="overflow:visible"
   inkscape:isstock="true"><path
     id="path7569"
     style="fill-rule:evenodd;stroke-width:0.625;stroke-linejoin:round;stroke:#ff0000;stroke-opacity:1;fill:#ff0000;fill-opacity:1"
     d="M 8.7185878,4.0337352 L -2.2072895,0.016013256 L 8.7185884,-4.0017078 C 6.9730900,-1.6296469 6.9831476,1.6157441 8.7185878,4.0337352 z "
     transform="scale(0.3) translate(-2.3,0)" /></marker><marker
   inkscape:isstock="true"
   style="overflow:visible"
   id="marker5956"
   refX="0.0"
   refY="0.0"
   orient="auto"
   inkscape:stockid="DotS"><path
     transform="scale(0.2) translate(7.4, 1)"
     style="fill-rule:evenodd;stroke:#ff0000;stroke-width:1pt;stroke-opacity:1;fill:#ff0000;fill-opacity:1"
     d="M -2.5,-1.0 C -2.5,1.7600000 -4.7400000,4.0 -7.5,4.0 C -10.260000,4.0 -12.5,1.7600000 -12.5,-1.0 C -12.5,-3.7600000 -10.260000,-6.0 -7.5,-6.0 C -4.7400000,-6.0 -2.5,-3.7600000 -2.5,-1.0 z "
     id="path5954" /></marker><marker
   inkscape:isstock="true"
   style="overflow:visible"
   id="marker5898"
   refX="0.0"
   refY="0.0"
   orient="auto"
   inkscape:stockid="Arrow2Sstart"><path
     transform="scale(0.3) translate(-2.3,0)"
     d="M 8.7185878,4.0337352 L -2.2072895,0.016013256 L 8.7185884,-4.0017078 C 6.9730900,-1.6296469 6.9831476,1.6157441 8.7185878,4.0337352 z "
     style="fill-rule:evenodd;stroke-width:0.625;stroke-linejoin:round;stroke:#ff0000;stroke-opacity:1;fill:#ff0000;fill-opacity:1"
     id="path5896" /></marker><inkscape:path-effect
   effect="bspline"
   id="path-effect5181"
   is_visible="true"
   weight="33.333333"
   steps="2"
   helper_size="0"
   apply_no_weight="true"
   apply_with_weight="true"
   only_selected="false" /><marker
   inkscape:stockid="Arrow2Lstart"
   orient="auto"
   refY="0.0"
   refX="0.0"
   id="Arrow2Lstart"
   style="overflow:visible"
   inkscape:isstock="true"><path
     id="path978"
     style="fill-rule:evenodd;stroke-width:0.625;stroke-linejoin:round;stroke:#ff0000;stroke-opacity:1;fill:#ff0000;fill-opacity:1"
     d="M 8.7185878,4.0337352 L -2.2072895,0.016013256 L 8.7185884,-4.0017078 C 6.9730900,-1.6296469 6.9831476,1.6157441 8.7185878,4.0337352 z "
     transform="scale(1.1) translate(1,0)" /></marker><marker
   inkscape:stockid="Arrow1Sstart"
   orient="auto"
   refY="0.0"
   refX="0.0"
   id="marker1306"
   style="overflow:visible"
   inkscape:isstock="true"><path
     id="path1304"
     d="M 0.0,0.0 L 5.0,-5.0 L -12.5,0.0 L 5.0,5.0 L 0.0,0.0 z "
     style="fill-rule:evenodd;stroke:#ff0000;stroke-width:1pt;stroke-opacity:1;fill:#ff0000;fill-opacity:1"
     transform="scale(0.2) translate(6,0)" /></marker><marker
   inkscape:stockid="Arrow1Sstart"
   orient="auto"
   refY="0.0"
   refX="0.0"
   id="Arrow1Sstart"
   style="overflow:visible"
   inkscape:isstock="true"><path
     id="path972"
     d="M 0.0,0.0 L 5.0,-5.0 L -12.5,0.0 L 5.0,5.0 L 0.0,0.0 z "
     style="fill-rule:evenodd;stroke:#ff0000;stroke-width:1pt;stroke-opacity:1;fill:#ff0000;fill-opacity:1"
     transform="scale(0.2) translate(6,0)" /></marker><inkscape:path-effect
   effect="bspline"
   id="path-effect958"
   is_visible="true"
   weight="33.333333"
   steps="2"
   helper_size="0"
   apply_no_weight="true"
   apply_with_weight="true"
   only_selected="false" />
	
<marker
   inkscape:stockid="Arrow2Sstart"
   orient="auto"
   refY="0"
   refX="0"
   id="Arrow2Sstart-7"
   style="overflow:visible"
   inkscape:isstock="true"><path
     inkscape:connector-curvature="0"
     id="path990-0"
     style="fill:#ff0000;fill-opacity:1;fill-rule:evenodd;stroke:#ff0000;stroke-width:0.625;stroke-linejoin:round;stroke-opacity:1"
     d="M 8.7185878,4.0337352 -2.2072895,0.01601326 8.7185884,-4.0017078 c -1.7454984,2.3720609 -1.7354408,5.6174519 -6e-7,8.035443 z"
     transform="matrix(0.3,0,0,0.3,-0.69,0)" /></marker><marker
   inkscape:stockid="DotS"
   orient="auto"
   refY="0"
   refX="0"
   id="DotS-9"
   style="overflow:visible"
   inkscape:isstock="true"><path
     inkscape:connector-curvature="0"
     id="path1027-3"
     d="m -2.5,-1 c 0,2.76 -2.24,5 -5,5 -2.76,0 -5,-2.24 -5,-5 0,-2.76 2.24,-5 5,-5 2.76,0 5,2.24 5,5 z"
     style="fill:#ff0000;fill-opacity:1;fill-rule:evenodd;stroke:#ff0000;stroke-width:1.00000003pt;stroke-opacity:1"
     transform="matrix(0.2,0,0,0.2,1.48,0.2)" /></marker><inkscape:path-effect
   effect="bspline"
   id="path-effect958-6"
   is_visible="true"
   weight="33.333333"
   steps="2"
   helper_size="0"
   apply_no_weight="true"
   apply_with_weight="true"
   only_selected="false" /></defs><sodipodi:namedview
   inkscape:guide-bbox="true"
   showguides="true"
   inkscape:document-rotation="0"
   pagecolor="#ffffff"
   bordercolor="#666666"
   borderopacity="1"
   objecttolerance="10"
   gridtolerance="10"
   guidetolerance="10"
   inkscape:pageopacity="0"
   inkscape:pageshadow="2"
   inkscape:window-width="1920"
   inkscape:window-height="1051"
   id="namedview37"
   showgrid="true"
   inkscape:zoom="9.6137027"
   inkscape:cx="35.912164"
   inkscape:cy="34.219162"
   inkscape:window-x="0"
   inkscape:window-y="0"
   inkscape:window-maximized="1"
   inkscape:current-layer="g883"><inkscape:grid
     type="xygrid"
     id="grid845"
     spacingx="3.0000001"
     spacingy="3.0000001"
     empspacing="6" /></sodipodi:namedview>

<g
   id="g6">
</g>
<g
   id="g8">
</g>
<g
   id="g10">
</g>
<g
   id="g12">
</g>
<g
   id="g14">
</g>
<g
   id="g16">
</g>
<g
   id="g18">
</g>
<g
   id="g20">
</g>
<g
   id="g22">
</g>
<g
   id="g24">
</g>
<g
   id="g26">
</g>
<g
   id="g28">
</g>
<g
   id="g30">
</g>
<g
   id="g32">
</g>
<g
   id="g34">
</g>
<g
   id="g3836"
   transform="translate(-55.519758,-12.300575)"><g
     transform="translate(36.066873,9.171551)"
     id="g883"><path
       style="fill:none;stroke:#000000;stroke-width:2;stroke-linecap:round;stroke-linejoin:round;stroke-opacity:1;stroke-miterlimit:4;stroke-dasharray:none"
       d="m 28.452885,17.465022 v 21 h 24.000001 v -21"
       id="path925"
       inkscape:connector-curvature="0" /><g
       id="g909"
       transform="translate(-22.39503,4.8982141)"
       style="stroke-width:2;stroke-miterlimit:4;stroke-dasharray:none"><path
         sodipodi:nodetypes="cc"
         inkscape:connector-curvature="0"
         id="path932"
         d="m 56.847916,15.566808 12,12"
         style="mix-blend-mode:lighten;fill:none;fill-rule:evenodd;stroke:#ff0005;stroke-width:2;stroke-linecap:round;stroke-linejoin:miter;stroke-miterlimit:4;stroke-dasharray:none;stroke-opacity:1" /><path
         sodipodi:nodetypes="cc"
         inkscape:connector-curvature="0"
         id="path934"
         d="m 56.847916,27.566808 12,-12"
         style="mix-blend-mode:lighten;fill:#ffffff;fill-rule:evenodd;stroke:#ff0005;stroke-width:2;stroke-linecap:round;stroke-linejoin:miter;stroke-miterlimit:4;stroke-dasharray:none;stroke-opacity:1" /></g><g
       id="g8369"
       transform="translate(0,2)"><path
         style="color:#000000;font-style:normal;font-variant:normal;font-weight:normal;font-stretch:normal;font-size:medium;line-height:normal;font-family:sans-serif;font-variant-ligatures:normal;font-variant-position:normal;font-variant-caps:normal;font-variant-numeric:normal;font-variant-alternates:normal;font-feature-settings:normal;text-indent:0;text-align:start;text-decoration:none;text-decoration-line:none;text-decoration-style:solid;text-decoration-color:#000000;letter-spacing:normal;word-spacing:normal;text-transform:none;writing-mode:lr-tb;direction:ltr;text-orientation:mixed;dominant-baseline:auto;baseline-shift:baseline;text-anchor:start;white-space:normal;shape-padding:0;clip-rule:nonzero;display:inline;overflow:visible;visibility:visible;opacity:1;isolation:auto;mix-blend-mode:normal;color-interpolation:sRGB;color-interpolation-filters:linearRGB;solid-color:#000000;solid-opacity:1;vector-effect:none;fill:#ff0000;fill-opacity:1;fill-rule:nonzero;stroke:none;stroke-width:2;stroke-linecap:butt;stroke-linejoin:miter;stroke-miterlimit:4;stroke-dasharray:none;stroke-dashoffset:0;stroke-opacity:1;color-rendering:auto;image-rendering:auto;shape-rendering:auto;text-rendering:auto;enable-background:accumulate"
         d="m 52.453125,4.4648438 c -3,0 -4.984106,-0.011392 -6.603516,0.2753906 -1.619409,0.2867831 -2.876416,0.9550916 -4.021484,2.0996094 -1.145231,1.1446809 -1.81269,2.4016688 -2.099609,4.0214842 -0.28692,1.619816 -0.275391,3.603515 -0.275391,6.603516 h 2 c 0,-3.000001 0.01047,-4.934731 0.244141,-6.253906 0.233666,-1.319176 0.607807,-2.0203672 1.544922,-2.9570318 0.937278,-0.9368277 1.6382,-1.3113685 2.957031,-1.5449218 1.318831,-0.2335533 3.253906,-0.2441406 6.253906,-0.2441406 z"
         inkscape:connector-curvature="0" /><path
         d="m 42.873127,13.613869 -2.410633,6.555527 -2.410633,-6.555527 c 1.423237,1.047299 3.370471,1.041264 4.821266,0 z"
         style="fill:#ff0000;fill-opacity:1;fill-rule:evenodd;stroke:#ff0000;stroke-width:0.375;stroke-linejoin:round;stroke-opacity:1"
         id="path8373"
         inkscape:connector-curvature="0" /><path
         id="path8375"
         d="m 54.412886,5.4650212 c 0,1.104 -0.896,2 -2,2 -1.104,0 -2,-0.896 -2,-2 0,-1.104 0.896,-2 2,-2 1.104,0 2,0.896 2,2 z"
         style="fill:#ff0000;fill-opacity:1;fill-rule:evenodd;stroke:#ff0000;stroke-width:0.40000002pt;stroke-opacity:1"
         inkscape:connector-curvature="0" /></g></g></g></svg>