<?xml version="1.0" encoding="UTF-8" standalone="no"?>
<svg
   xmlns:dc="http://purl.org/dc/elements/1.1/"
   xmlns:cc="http://creativecommons.org/ns#"
   xmlns:rdf="http://www.w3.org/1999/02/22-rdf-syntax-ns#"
   xmlns:svg="http://www.w3.org/2000/svg"
   xmlns="http://www.w3.org/2000/svg"
   xmlns:sodipodi="http://sodipodi.sourceforge.net/DTD/sodipodi-0.dtd"
   xmlns:inkscape="http://www.inkscape.org/namespaces/inkscape"
   inkscape:version="1.0rc1 (09960d6f05, 2020-04-09)"
   sodipodi:docname="delete.svg"
   xml:space="preserve"
   style="enable-background:new 0 0 41.336 41.336;"
   viewBox="0 0 41.336 41.336"
   height="41.336px"
   width="41.336px"
   y="0px"
   x="0px"
   id="Capa_1"
   version="1.1"><metadata
   id="metadata41"><rdf:RDF><cc:Work
       rdf:about=""><dc:format>image/svg+xml</dc:format><dc:type
         rdf:resource="http://purl.org/dc/dcmitype/StillImage" /></cc:Work></rdf:RDF></metadata><defs
   id="defs39"><filter
     height="1.0109062"
     y="-0.0054531111"
     width="1.0127588"
     x="-0.0063794023"
     id="filter884"
     style="color-interpolation-filters:sRGB"
     inkscape:collect="always"><feGaussianBlur
       id="feGaussianBlur886"
       stdDeviation="0.09392075"
       inkscape:collect="always" /></filter></defs><sodipodi:namedview
   inkscape:current-layer="g967"
   inkscape:window-maximized="1"
   inkscape:window-y="0"
   inkscape:window-x="0"
   inkscape:cy="20.667999"
   inkscape:cx="20.667999"
   inkscape:zoom="19.792011"
   showgrid="false"
   id="namedview37"
   inkscape:window-height="1369"
   inkscape:window-width="2560"
   inkscape:pageshadow="2"
   inkscape:pageopacity="0"
   guidetolerance="10"
   gridtolerance="10"
   objecttolerance="10"
   borderopacity="1"
   bordercolor="#666666"
   pagecolor="#ffffff" />

<g
   id="g6">
</g>
<g
   id="g8">
</g>
<g
   id="g10">
</g>
<g
   id="g12">
</g>
<g
   id="g14">
</g>
<g
   id="g16">
</g>
<g
   id="g18">
</g>
<g
   id="g20">
</g>
<g
   id="g22">
</g>
<g
   id="g24">
</g>
<g
   id="g26">
</g>
<g
   id="g28">
</g>
<g
   id="g30">
</g>
<g
   id="g32">
</g>
<g
   id="g34">
</g>
<g
   style="opacity:1;mix-blend-mode:lighten;stroke-width:2;stroke-miterlimit:4;stroke-dasharray:none"
   transform="matrix(1.1949692,0,0,1.2984987,-5.4023333,-8.0998377)"
   id="g967"><g
     transform="matrix(0.75005101,0,0,0.7652733,5.9043329,4.9812985)"
     id="g2946"><g
       id="g4"
       style="fill:#000000;fill-opacity:1;filter:url(#filter884)"
       transform="matrix(0.83684165,0,0,0.77012014,3.838443,6.1566829)">
	<path
   d="M 36.335,5.668 H 28.168 V 1.5 c 0,-0.828 -0.672,-1.5 -1.5,-1.5 h -12 c -0.828,0 -1.5,0.672 -1.5,1.5 V 5.668 H 5.001 c -1.104,0 -2,0.896 -2,2 0,1.104 0.896,2 2,2 h 2.001 v 29.168 c 0,1.381 1.119,2.5 2.5,2.5 h 22.332 c 1.381,0 2.5,-1.119 2.5,-2.5 V 9.668 h 2.001 c 1.104,0 2,-0.896 2,-2 0,-1.104 -0.897,-2 -2,-2 z M 14.168,35.67 c 0,0.828 -0.672,1.5 -1.5,1.5 -0.828,0 -1.5,-0.672 -1.5,-1.5 v -21 c 0,-0.828 0.672,-1.5 1.5,-1.5 0.828,0 1.5,0.672 1.5,1.5 z m 8,0 c 0,0.828 -0.672,1.5 -1.5,1.5 -0.828,0 -1.5,-0.672 -1.5,-1.5 v -21 c 0,-0.828 0.672,-1.5 1.5,-1.5 0.828,0 1.5,0.672 1.5,1.5 z m 3,-30.002 h -9 V 3 h 9 z m 5,30.002 c 0,0.828 -0.672,1.5 -1.5,1.5 -0.828,0 -1.5,-0.672 -1.5,-1.5 v -21 c 0,-0.828 0.672,-1.5 1.5,-1.5 0.828,0 1.5,0.672 1.5,1.5 z"
   id="path2"
   style="fill:#000000;fill-opacity:1"
   inkscape:connector-curvature="0" />
</g><path
       inkscape:connector-curvature="0"
       id="path932"
       d="M 16.031563,18.527243 25.793433,28.7095"
       style="fill:none;fill-rule:evenodd;stroke:#ff0000;stroke-width:2;stroke-linecap:butt;stroke-linejoin:miter;stroke-miterlimit:4;stroke-dasharray:none;stroke-opacity:1" /><path
       inkscape:connector-curvature="0"
       id="path934"
       d="M 16.379199,28.783222 25.898507,18.692148"
       style="fill:none;fill-rule:evenodd;stroke:#ff0000;stroke-width:2;stroke-linecap:butt;stroke-linejoin:miter;stroke-miterlimit:4;stroke-dasharray:none;stroke-opacity:1" /></g></g></svg>
