<?xml version="1.0" encoding="UTF-8" standalone="no"?>
<svg
   xmlns:dc="http://purl.org/dc/elements/1.1/"
   xmlns:cc="http://creativecommons.org/ns#"
   xmlns:rdf="http://www.w3.org/1999/02/22-rdf-syntax-ns#"
   xmlns:svg="http://www.w3.org/2000/svg"
   xmlns="http://www.w3.org/2000/svg"
   xmlns:sodipodi="http://sodipodi.sourceforge.net/DTD/sodipodi-0.dtd"
   xmlns:inkscape="http://www.inkscape.org/namespaces/inkscape"
   version="1.1"
   id="Capa_1"
   x="0px"
   y="0px"
   width="41.336px"
   height="41.336px"
   viewBox="0 0 41.336 41.336"
   style="enable-background:new 0 0 41.336 41.336;"
   xml:space="preserve"
   sodipodi:docname="delete.svg"
   inkscape:version="1.0rc1 (09960d6f05, 2020-04-09)"><metadata
   id="metadata41"><rdf:RDF><cc:Work
       rdf:about=""><dc:format>image/svg+xml</dc:format><dc:type
         rdf:resource="http://purl.org/dc/dcmitype/StillImage" /></cc:Work></rdf:RDF></metadata><defs
   id="defs39">
	
</defs><sodipodi:namedview
   inkscape:guide-bbox="true"
   showguides="true"
   inkscape:document-rotation="0"
   pagecolor="#ffffff"
   bordercolor="#666666"
   borderopacity="1"
   objecttolerance="10"
   gridtolerance="10"
   guidetolerance="10"
   inkscape:pageopacity="0"
   inkscape:pageshadow="2"
   inkscape:window-width="2560"
   inkscape:window-height="1369"
   id="namedview37"
   showgrid="false"
   inkscape:zoom="7.2407734"
   inkscape:cx="20.667999"
   inkscape:cy="20.667999"
   inkscape:window-x="0"
   inkscape:window-y="0"
   inkscape:window-maximized="1"
   inkscape:current-layer="g883" />

<g
   id="g6">
</g>
<g
   id="g8">
</g>
<g
   id="g10">
</g>
<g
   id="g12">
</g>
<g
   id="g14">
</g>
<g
   id="g16">
</g>
<g
   id="g18">
</g>
<g
   id="g20">
</g>
<g
   id="g22">
</g>
<g
   id="g24">
</g>
<g
   id="g26">
</g>
<g
   id="g28">
</g>
<g
   id="g30">
</g>
<g
   id="g32">
</g>
<g
   id="g34">
</g>
<g
   id="g3836"
   transform="translate(-55.519758,-12.300575)"><g
     transform="translate(36.066873,9.171551)"
     id="g883"><g
       transform="translate(-0.92990524,-0.76867589)"
       id="g1110"><g
         id="g1092"><g
           id="g1080"><g
             id="g934"
             transform="translate(0.44525541,-0.07855126)"><path
               d="M 52.687463,12.708 H 46.561797 V 9.5183406 c 0,-0.6336462 -0.504035,-1.1479099 -1.125077,-1.1479099 h -9.000612 c -0.621042,0 -1.125076,0.5142637 -1.125076,1.1479099 V 12.708 h -6.125666 c -0.828056,0 -1.500102,0.685685 -1.500102,1.530547 0,0.844862 0.672046,1.530547 1.500102,1.530547 h 1.500853 v 22.321491 c 0,1.056843 0.839305,1.913184 1.875126,1.913184 h 16.750139 c 1.03582,0 1.875127,-0.856341 1.875127,-1.913184 V 15.769094 h 1.500852 c 0.828057,0 1.500102,-0.685685 1.500102,-1.530547 0,-0.844862 -0.672795,-1.530547 -1.500102,-1.530547 z m -16.62638,22.95973 c 0,0.633646 -0.504035,1.14791 -1.125077,1.14791 -0.621042,0 -1.125076,-0.514264 -1.125076,-1.14791 V 19.596991 c 0,-0.633646 0.504034,-1.14791 1.125076,-1.14791 0.621042,0 1.125077,0.514264 1.125077,1.14791 z m 6.000408,0 c 0,0.633646 -0.504035,1.14791 -1.125077,1.14791 -0.621042,0 -1.125076,-0.514264 -1.125076,-1.14791 V 19.596991 c 0,-0.633646 0.504034,-1.14791 1.125076,-1.14791 0.621042,0 1.125077,0.514264 1.125077,1.14791 z M 44.311644,12.708 h -6.750459 v -2.041749 h 6.750459 z m 3.750255,22.95973 c 0,0.633646 -0.504035,1.14791 -1.125077,1.14791 -0.621042,0 -1.125076,-0.514264 -1.125076,-1.14791 V 19.596991 c 0,-0.633646 0.504034,-1.14791 1.125076,-1.14791 0.621042,0 1.125077,0.514264 1.125077,1.14791 z"
               id="path2"
               style="mix-blend-mode:lighten;fill:#000000;fill-opacity:0.65;stroke-width:1.51525;stroke-miterlimit:4;stroke-dasharray:none"
               inkscape:connector-curvature="0" /><g
               transform="translate(-44.781524,0.64775189)"
               id="g924"><g
                 transform="translate(31.854315,17.982317)"
                 id="g3840"
                 style="fill:#000000;fill-opacity:1;stroke:#000000;stroke-width:4;stroke-miterlimit:4;stroke-dasharray:none;stroke-opacity:1"><path
                   style="mix-blend-mode:lighten;fill:#000000;fill-opacity:1;fill-rule:evenodd;stroke:#000000;stroke-width:4;stroke-linecap:round;stroke-linejoin:miter;stroke-miterlimit:4;stroke-dasharray:none;stroke-opacity:1"
                   d="M 49.793851,2.5365058 58.543297,12.65468"
                   id="path3611"
                   inkscape:connector-curvature="0" /><path
                   style="mix-blend-mode:lighten;fill:#000000;fill-opacity:1;fill-rule:evenodd;stroke:#000000;stroke-width:4;stroke-linecap:round;stroke-linejoin:miter;stroke-miterlimit:4;stroke-dasharray:none;stroke-opacity:1"
                   d="M 49.856758,12.606506 58.388798,2.5789419"
                   id="path3613"
                   inkscape:connector-curvature="0" /></g><g
                 id="g916"
                 transform="translate(13.060036,-3.563229)"><path
                   style="mix-blend-mode:lighten;fill:none;fill-rule:evenodd;stroke:#ff0005;stroke-width:1.88748;stroke-linecap:round;stroke-linejoin:miter;stroke-miterlimit:4;stroke-dasharray:none;stroke-opacity:1"
                   d="m 68.693523,24.055604 8.749446,10.118174"
                   id="path932"
                   inkscape:connector-curvature="0" /><path
                   style="mix-blend-mode:lighten;fill:#ffffff;fill-rule:evenodd;stroke:#ff0005;stroke-width:1.88748;stroke-linecap:round;stroke-linejoin:miter;stroke-miterlimit:4;stroke-dasharray:none;stroke-opacity:1"
                   d="m 68.651037,34.152052 8.53204,-10.027565"
                   id="path934"
                   inkscape:connector-curvature="0" /></g></g></g></g></g><path
         style="fill:#ffffff;fill-opacity:1;stroke:#000000;stroke-width:0.202102;stroke-miterlimit:4;stroke-dasharray:none;stroke-opacity:1"
         d="m 15.582631,33.526111 c -0.246365,-0.08935 -0.503515,-0.314969 -0.631127,-0.553743 l -0.113561,-0.212482 -0.01323,-8.228027 c -0.0087,-5.421193 0.0042,-8.292656 0.03779,-8.417485 0.107702,-0.399973 0.417971,-0.705497 0.829375,-0.816691 0.492128,-0.133012 1.146962,0.237083 1.267048,0.716102 0.02593,0.103448 0.002,0.138797 -0.149281,0.220181 -0.0991,0.05332 -0.280097,0.203774 -0.402224,0.334338 -0.602198,0.643798 -0.735806,1.546185 -0.341839,2.308779 0.0751,0.145376 0.324126,0.479242 0.553386,0.741924 l 0.416834,0.477605 v 2.922614 2.922615 l -0.404945,0.478547 c -0.222719,0.263201 -0.467069,0.603598 -0.543,0.756437 -0.12514,0.251894 -0.138068,0.329882 -0.138203,0.83367 -1.36e-4,0.518163 0.0105,0.578007 0.157143,0.884195 0.163506,0.341391 0.415155,0.629469 0.739535,0.846591 l 0.18947,0.12682 v 1.364243 c 0,1.57406 -0.01756,1.674215 -0.352279,2.008932 -0.324743,0.324742 -0.713505,0.425327 -1.100889,0.284835 z"
         id="path1051"
         inkscape:connector-curvature="0"
         transform="translate(19.452885,3.129024)" /><path
         style="fill:#ffffff;fill-opacity:1;stroke:#000000;stroke-width:0.202102;stroke-miterlimit:4;stroke-dasharray:none;stroke-opacity:1"
         d="m 21.557826,33.517588 c -0.258321,-0.09143 -0.606665,-0.457669 -0.677309,-0.712101 -0.0358,-0.12895 -0.05484,-1.038726 -0.05503,-2.629275 l -2.82e-4,-2.432097 0.690529,-0.813348 c 0.539184,-0.635082 0.705133,-0.801228 0.757157,-0.758051 0.03665,0.03041 0.227005,0.244201 0.423022,0.475084 l 0.356395,0.419789 -0.01462,2.846148 c -0.0144,2.803169 -0.01627,2.849201 -0.123388,3.048251 -0.139753,0.259681 -0.290487,0.398043 -0.573329,0.526271 -0.265355,0.120301 -0.501167,0.129132 -0.783144,0.02933 z"
         id="path1053"
         inkscape:connector-curvature="0"
         transform="translate(19.452885,3.129024)" /><path
         style="fill:#ffffff;fill-opacity:1;stroke:#000000;stroke-width:0.202102;stroke-miterlimit:4;stroke-dasharray:none;stroke-opacity:1"
         d="m 27.591645,33.527371 c -0.09944,-0.03714 -0.234809,-0.105352 -0.300809,-0.15158 -0.165054,-0.115609 -0.394237,-0.46823 -0.428711,-0.659619 -0.01569,-0.08711 -0.02191,-0.712849 -0.01383,-1.390524 l 0.0147,-1.232136 0.276665,-0.07078 c 0.152166,-0.03893 0.368944,-0.124857 0.48173,-0.190954 0.294721,-0.172718 0.667104,-0.5912 0.824059,-0.926073 0.121191,-0.258568 0.135395,-0.347273 0.135262,-0.844688 -1.36e-4,-0.502989 -0.01326,-0.582491 -0.138214,-0.837 -0.07918,-0.161275 -0.450852,-0.643998 -0.871415,-1.131778 l -0.73335,-0.850558 v -2.279695 -2.279694 l 0.657016,-0.777481 c 0.361359,-0.427615 0.719458,-0.904627 0.795776,-1.060028 0.125795,-0.25615 0.138759,-0.334474 0.138759,-0.838328 0,-0.497239 -0.01426,-0.58621 -0.135411,-0.844687 -0.239926,-0.511898 -0.73055,-0.928479 -1.318962,-1.119911 -0.08187,-0.02663 -0.08347,-0.04234 -0.01732,-0.170244 0.194234,-0.375607 0.542271,-0.588523 0.966441,-0.591231 0.376156,-0.0024 0.717494,0.178552 0.923221,0.489426 l 0.137813,0.20825 v 8.445128 8.445128 l -0.137813,0.20825 c -0.261547,0.395223 -0.844257,0.604436 -1.255607,0.450804 z"
         id="path1055"
         inkscape:connector-curvature="0"
         transform="translate(19.452885,3.129024)" /><path
         style="fill:#ffffff;fill-opacity:1;stroke:#000000;stroke-width:0.202102;stroke-miterlimit:4;stroke-dasharray:none;stroke-opacity:1"
         d="m 21.494669,19.068615 -0.669462,-0.779111 v -1.019856 c 0,-1.20055 0.0301,-1.341959 0.355116,-1.66839 0.537221,-0.539558 1.36387,-0.404579 1.733976,0.283132 0.102517,0.190493 0.109691,0.282137 0.124891,1.595436 l 0.01613,1.393333 -0.416736,0.488739 c -0.229204,0.268806 -0.429721,0.488084 -0.445592,0.487283 -0.01587,-8.01e-4 -0.330115,-0.352056 -0.698319,-0.780566 z"
         id="path1063"
         inkscape:connector-curvature="0"
         transform="translate(19.452885,3.129024)" /><path
         style="fill:#ffffff;fill-opacity:1;stroke:#000000;stroke-width:0.202102;stroke-miterlimit:4;stroke-dasharray:none;stroke-opacity:1"
         d="M 18.551563,8.4824136 V 7.4719048 h 3.359941 3.359942 v 1.0105088 1.0105087 h -3.359942 -3.359941 z"
         id="path1065"
         inkscape:connector-curvature="0"
         transform="translate(19.452885,3.129024)" /></g></g></g></svg>
