<?xml version="1.0" encoding="UTF-8" standalone="no"?>
<svg
   xmlns:dc="http://purl.org/dc/elements/1.1/"
   xmlns:cc="http://creativecommons.org/ns#"
   xmlns:rdf="http://www.w3.org/1999/02/22-rdf-syntax-ns#"
   xmlns:svg="http://www.w3.org/2000/svg"
   xmlns="http://www.w3.org/2000/svg"
   xmlns:sodipodi="http://sodipodi.sourceforge.net/DTD/sodipodi-0.dtd"
   xmlns:inkscape="http://www.inkscape.org/namespaces/inkscape"
   id="svg2"
   viewBox="0 0 610 610"
   version="1.1"
   sodipodi:docname="fingers_in_gears.svg"
   inkscape:version="0.92.4 (5da689c313, 2019-01-14)">
  <defs
     id="defs13" />
  <sodipodi:namedview
     pagecolor="#ffffff"
     bordercolor="#666666"
     borderopacity="1"
     objecttolerance="10"
     gridtolerance="10"
     guidetolerance="10"
     inkscape:pageopacity="0"
     inkscape:pageshadow="2"
     inkscape:window-width="1920"
     inkscape:window-height="986"
     id="namedview11"
     showgrid="false"
     inkscape:zoom="0.9611802"
     inkscape:cx="120.45048"
     inkscape:cy="367.44333"
     inkscape:window-x="-11"
     inkscape:window-y="-11"
     inkscape:window-maximized="1"
     inkscape:current-layer="svg2" />
  <path
     id="path3353"
     d="m 440.76908,404.30274 -34.511,-9.3933 c -1.2308,-5.9316 -2.6985,-11.714 -4.5669,-17.385 l 25.274,-25.274 -23.405,-40.376 -34.511,9.1857 c -4.0001,-4.4822 -8.2911,-8.759 -12.767,-12.767 l 9.2376,-34.459 -40.376,-23.457 -25.326,25.326 c -5.7562,-1.8988 -11.725,-3.5845 -17.749,-4.8264 h -0.20759 l -8.7706,-34.304 h -46.655 l -8.7706,34.304 c -6.2915,1.2801 -12.423,3.0382 -18.423,5.034 l -24.859,-25.533 -40.376,23.457 9.6528,34.044 c -4.7122,4.1816 -9.1991,8.6842 -13.389,13.389 l -34.304,-9.3933 -23.405,40.376 25.481,24.859 c -1.975,5.9368 -3.7596,11.993 -5.034,18.216 l -34.252,8.9782 v 46.603 l 34.252,8.8224 c 1.2797,6.249 3.0478,12.411 5.034,18.371 l -25.481,24.703 23.405,40.531 34.304,-9.6009 c 4.1616,4.6736 8.5048,9.2304 13.182,13.389 l -9.4452,34.304 40.376,23.198 24.651,-25.326 c 5.9324,1.9822 11.997,3.7526 18.216,5.034 l 9.1857,34.304 h 46.655 l 9.1857,-34.304 c 5.9548,-1.2355 11.848,-2.8964 17.541,-4.7745 l 25.326,25.066 40.376,-23.198 -9.4452,-34.719 c 4.4919,-4.0141 8.7524,-8.2747 12.767,-12.767 l 34.719,9.3933 23.405,-40.531 -25.274,-25.118 c 1.852,-5.6136 3.1321,-11.465 4.3593,-17.334 l 34.719,-9.4452 v -46.603 z m -122.94,23.3 c 0,37.612 -30.477,68.089 -68.089,68.089 -37.612,0 -68.037,-30.477 -68.037,-68.089 0,-37.612 30.425,-68.089 68.037,-68.089 37.612,0 68.089,30.477 68.089,68.089 z"
     inkscape:connector-curvature="0"
     style="fill:#000000" />
  <path
     id="path4352"
     d="m 511.01195,154.12366 -20.03581,11.11887 c -7.09173,-4.51774 -14.68027,-7.66224 -22.61716,-9.62564 l -5.38119,-22.19572 -23.58646,-0.34428 -6.02671,22.02921 c -8.10675,1.75597 -15.90308,4.80382 -23.2127,9.21302 l -19.44262,-11.95155 -16.90739,16.42092 11.37901,19.78316 c -4.55483,7.10157 -7.77161,14.85223 -9.7569,22.80795 l -22.19572,5.3812 -0.47458,23.71302 22.0292,6.02671 c 1.75712,8.09466 4.94071,15.72386 9.34425,23.02314 l -12.08124,19.56858 16.45256,16.93997 19.91285,-11.50496 c 7.01548,4.49964 14.50357,7.88621 22.35716,9.87817 l 5.79568,22.36173 23.71677,0.21771 5.99568,-22.06116 c 7.88362,-1.72821 15.53106,-4.69294 22.66446,-8.93257 l 19.86123,11.79701 16.90739,-16.42093 -11.21231,-20.19708 c 4.48182,-7.03457 7.62334,-14.52476 9.59027,-22.3941 l 22.35707,-5.4758 0.34426,-23.58645 -22.05709,-6.31618 c -1.73048,-7.86388 -4.73484,-15.51715 -8.96516,-22.63281 l 11.6989,-19.70276 -16.45256,-16.93997 z m -35.74994,51.21255 c 13.69059,14.09618 13.36085,36.6872 -0.73533,50.37779 -14.09617,13.69059 -36.55688,13.23428 -50.24747,-0.86189 -13.69059,-14.09617 -13.5228,-36.59322 0.57337,-50.2838 14.09617,-13.69059 36.71884,-13.32827 50.40943,0.7679 z"
     inkscape:connector-curvature="0"
     style="fill:#000000;stroke-width:0.87338561" />
  <metadata
     id="metadata8">
    <rdf:RDF>
      <cc:Work>
        <dc:format>image/svg+xml</dc:format>
        <dc:type
           rdf:resource="http://purl.org/dc/dcmitype/StillImage" />
        <cc:license
           rdf:resource="http://creativecommons.org/licenses/publicdomain/" />
        <dc:publisher>
          <cc:Agent
             rdf:about="http://openclipart.org/">
            <dc:title>Openclipart</dc:title>
          </cc:Agent>
        </dc:publisher>
        <dc:title></dc:title>
        <dc:date>2013-09-14T21:23:11</dc:date>
        <dc:description />
        <dc:source>http://openclipart.org/detail/183455/eco-green-machine-icon-by-dominiquechappard-183455</dc:source>
        <dc:creator>
          <cc:Agent>
            <dc:title>dominiquechappard</dc:title>
          </cc:Agent>
        </dc:creator>
        <dc:subject>
          <rdf:Bag>
            <rdf:li>ecology</rdf:li>
            <rdf:li>gear</rdf:li>
            <rdf:li>green</rdf:li>
            <rdf:li>icon</rdf:li>
            <rdf:li>industry</rdf:li>
            <rdf:li>machine</rdf:li>
          </rdf:Bag>
        </dc:subject>
      </cc:Work>
      <cc:License
         rdf:about="http://creativecommons.org/licenses/publicdomain/">
        <cc:permits
           rdf:resource="http://creativecommons.org/ns#Reproduction" />
        <cc:permits
           rdf:resource="http://creativecommons.org/ns#Distribution" />
        <cc:permits
           rdf:resource="http://creativecommons.org/ns#DerivativeWorks" />
      </cc:License>
    </rdf:RDF>
  </metadata>
  <path
     id="path4238"
     d="m 344.6103,243.4584 c 1.6438,-0.68036 3.0518,-1.7896 4.1513,-3.4164 0.56448,-0.7207 0.69602,-1.1815 0.93763,-2.354 -0.002,-0.0253 -0.006,-0.0672 -0.009,-0.0932 -0.23116,-1.4697 -3.6111,-4.3296 -6.9384,-13.952 -3.8028,-10.997 -5.0194,-16.753 -9.339,-29.198 -4.3196,-12.445 -4.2335,-10.218 -8.8647,-20.316 -4.6312,-10.098 -3.3594,-7.67 -10.525,-20.041 -7.1659,-12.372 -4.3028,-14.224 -19.086,-29.705 -14.716,-15.411 -23.123,-13.643 -41.65,-27.799 -18.542,-14.168 -13.996,-17.72 -32.669,-25.859 -8.1366,-3.5463 -13.427,-4.6442 -17.621,-4.8272 21.746,3.8038 23.521,22.089 43.726,37.673 16.248,12.532 16.145,20.563 28.222,26.97 11.821,6.2708 7.2443,30.178 16.268,46.892 0.29868,0.55317 0.57778,1.1144 0.85325,1.686 8.1e-4,0.003 0.006,0.0183 0.007,0.0213 0.007,0.008 0.0522,0.0403 0.0599,0.048 8e-4,0.003 0.006,0.0188 0.007,0.0213 4.0135,6.5098 9.2156,14.049 13.618,21.675 0.64655,1.2593 0.88166,1.4561 1.5059,2.387 2.3418,4.336 4.7276,9.6989 5.9919,13.809 3.7226,12.102 8.8663,23.248 18.557,25.992 4.3749,1.2386 8.553,1.769 11.904,0.7315 0.0532,-0.0164 0.10102,-0.0466 0.15386,-0.0636 0.0537,-0.0174 0.10053,-0.0456 0.15385,-0.0636 0.10999,-0.0375 0.21899,-0.0938 0.32694,-0.13525 0.0819,-0.0315 0.17634,-0.0486 0.25719,-0.0821 z m -44.848,1.0014 c 0.88497,-0.41616 1.6936,-1.0167 2.429,-1.8301 0.38637,-0.69442 0.87583,-0.80223 1.0063,-1.63 0.007,-0.0161 0.037,-0.0504 0.0433,-0.0665 0.014,-0.0291 0.0383,-0.0858 0.0482,-0.11703 0.34047,-1.269 -2.4999,-4.377 -4.3596,-14.557 -2.0003,-10.95 -1.009,-15.981 -3.6054,-27.856 -2.825,-12.921 -2.3136,-12.207 -6.4195,-21.643 -2.9855,-6.8605 -4.3264,-10.514 -6.1183,-20.359 -2.3925,-13.144 -1.5078,-17.493 -17.582,-29.405 -5.584,-4.1378 -12.129,-13.866 -18.769,-20.054 -4.1214,-3.8409 -9.1063,-8.6732 -15.06,-15.423 -14.709,-16.675 -14.817,-18.759 -22.919,-21.25 -10.887,-3.835 -5.5598,-1.8868 -14.742,-4.5338 -0.002,-0.006 -0.007,-0.0204 -0.007,-0.0213 -3.5306,-0.46187 -8.0041,-1.2708 -13.983,-2.7361 -26.658,-6.5337 -38.313,1.1827 -63.847,-21.166 -16.99,-14.884 -31.89,-29.292 -43.13,-40.83 h -75.78 v 21.653 c 18.711,30.925 51.78,93.758 64.682,96.337 3.35,6.1585 2.7198,-1.0253 5.6112,3.1891 7.9793,11.274 17.591,24.663 21.61,26.792 4.0052,0.86838 3.9876,3.3095 9.1025,1.0652 24.345,3.2992 33.179,9.2997 36.076,11.657 22.704,19.354 29.703,27.927 47.224,36.991 12.623,6.5299 18.089,0.36075 21.661,-4.1938 1.8646,-2.7136 2.3434,-4.7009 2.7768,-7.1686 0.75495,-4.2311 4.5907,-8.153 -4.5954,-20.067 -10.349,-13.422 -21.758,-24.959 -35.895,-32.243 -18.22,-9.3886 -15.241,-9.7658 -26.016,-23.805 -0.36472,4.1662 1.5561,1.6603 1.5255,0.17001 0.0118,0.006 0.0147,0.007 0.0264,0.0133 0.66817,0.80587 1.6386,1.9593 3.0867,4.4761 3.6846,5.0979 7.8247,9.8021 13.688,13.368 l 23.167,-2.3254 c 10.367,-4.8138 6.281,-2.1407 10.186,-2.4171 3.1277,2.8271 5.5515,3.7611 7.9976,4.6779 0.65352,0.43616 1.8557,0.54804 3.6896,0.80409 3.9357,3.2391 7.9746,5.3446 12.058,6.7122 0.59534,-0.33854 2.7532,0.12128 4.3242,0.54158 8.2249,7.4103 20.784,14.802 27.683,19.716 0.72757,0.74923 1.0212,0.80314 1.4571,1.0722 2.0267,1.5332 3.3191,2.7443 3.4867,3.5824 0.002,0.006 0.006,0.0146 0.007,0.0213 1.3005,8.1697 10.536,27.12 17.304,36.511 0.52596,1.0823 0.95646,1.5631 1.0156,2.4927 1.5379,4.476 2.9858,9.9126 3.5938,13.976 1.7902,11.963 4.9793,23.299 13.252,27.676 4.7977,2.5381 9.4531,3.8646 13.01,2.1917 z m 53.466,-27.699 c 2.173,-1.0082 3.567,-2.8939 4.901,-5.3528 0.31759,-0.7106 0.45187,-1.2972 0.5933,-1.7504 0.004,-0.014 0.002,-0.0364 0.005,-0.0506 8.1e-4,-0.005 0.0113,-0.0245 0.012,-0.0293 0.16446,-1.1932 -3.0959,-2.9682 -6.92,-11.362 -4.0422,-8.8725 -5.5076,-13.602 -10.096,-23.642 -4.588,-10.04 -4.3697,-8.1751 -9.038,-16.215 -4.6682,-8.0395 -3.2191,-6.2898 -10.377,-15.831 -15.218,-20.284 -15.184,-25.58 -21.633,-29.914 -4.1993,-2.8223 -13.368,-3.4854 -23.161,-4.3524 13.484,7.3845 17.944,12.842 24.902,20.697 5.9689,6.7374 11.123,20.436 24.715,45.364 8.416,15.434 11.92,30.658 14.998,41.955 l 0.30259,0.11758 c 0.97633,0.4096 1.9531,0.70966 2.9446,0.86949 3.0259,0.48778 5.3093,0.41364 7.081,-0.18613 0.0573,-0.0189 0.0976,-0.0435 0.15384,-0.0636 0.21854,-0.0795 0.41111,-0.15978 0.61542,-0.25456 z"
     inkscape:connector-curvature="0"
     style="fill:#000000" />
</svg>
