<?xml version="1.0" encoding="UTF-8" standalone="no"?>
<svg
   width="206.395"
   height="69.545998"
   viewBox="0 0 206.39501 69.545998"
   version="1.1"
   xml:space="preserve"
   style="clip-rule:evenodd;fill-rule:evenodd;stroke-linecap:round;stroke-linejoin:round"
   id="svg93"
   sodipodi:docname="plomLogo2.svg"
   inkscape:version="1.4.3 (0d15f75, 2025-12-25)"
   inkscape:export-filename="attempt1.png"
   inkscape:export-xdpi="123.44759"
   inkscape:export-ydpi="123.44759"
   xmlns:inkscape="http://www.inkscape.org/namespaces/inkscape"
   xmlns:sodipodi="http://sodipodi.sourceforge.net/DTD/sodipodi-0.dtd"
   xmlns="http://www.w3.org/2000/svg"
   xmlns:svg="http://www.w3.org/2000/svg"
   xmlns:rdf="http://www.w3.org/1999/02/22-rdf-syntax-ns#"
   xmlns:cc="http://creativecommons.org/ns#"
   xmlns:dc="http://purl.org/dc/elements/1.1/"
   xmlns:serif="http://www.serif.com/"><metadata
   id="metadata99"><rdf:RDF><cc:Work
       rdf:about=""><dc:format>image/svg+xml</dc:format><dc:type
         rdf:resource="http://purl.org/dc/dcmitype/StillImage" /></cc:Work></rdf:RDF></metadata><defs
   id="defs97" /><sodipodi:namedview
   pagecolor="#ffffff"
   bordercolor="#666666"
   borderopacity="1"
   objecttolerance="10"
   gridtolerance="10"
   guidetolerance="10"
   inkscape:pageopacity="0"
   inkscape:pageshadow="2"
   inkscape:window-width="1920"
   inkscape:window-height="1009"
   id="namedview95"
   showgrid="true"
   inkscape:zoom="3.3225806"
   inkscape:cx="135.58738"
   inkscape:cy="35.063107"
   inkscape:window-x="1672"
   inkscape:window-y="-8"
   inkscape:window-maximized="1"
   inkscape:current-layer="svg93"
   fit-margin-top="0"
   fit-margin-left="0"
   fit-margin-right="0"
   fit-margin-bottom="0"
   inkscape:showpageshadow="2"
   inkscape:pagecheckerboard="0"
   inkscape:deskcolor="#d1d1d1"><inkscape:grid
     type="xygrid"
     id="grid944"
     originx="0.00021272035"
     originy="-0.45430738"
     spacingy="1"
     spacingx="1"
     units="px" /></sodipodi:namedview>

<g
   id="g4"><g
     id="g3"><g
       id="g2"><g
         id="g1"><g
           id="Artboard1"
           transform="matrix(1.06674,0,0,1,1.9788027,-0.032)">
        <rect
   x="-1.855"
   y="0.032000002"
   width="86.945999"
   height="69.545998"
   style="fill:none"
   id="rect2" />
        <clipPath
   id="_clip1">
            <rect
   x="-1.855"
   y="0.032000002"
   width="86.945999"
   height="69.545998"
   id="rect4" />
        </clipPath>
        <g
   clip-path="url(#_clip1)"
   id="g90">
            <g
   id="g928"
   transform="matrix(0.937436,0,0,1,-152,-691.1)">
                <g
   id="g1398"
   transform="translate(3.92228,-10.4742)">
                    <path
   id="path906"
   d="m 237.728,724.89 c 0,-3.333 -1.372,-6.644 -3.728,-9 -2.356,-2.357 -5.668,-3.728 -9,-3.728 -3.332,0 -6.644,1.371 -9,3.728 l -4.5,4.5 v 18 h 18 l 4.5,-4.5 c 2.356,-2.357 3.728,-5.668 3.728,-9 z"
   style="fill:#a6a6ff;fill-rule:nonzero"
   inkscape:connector-curvature="0" />
                    <path
   id="path887-3"
   d="m 229.5,738.39 h -18 l -13.5,13.5 h 18 z"
   style="fill:#4a914e;fill-rule:nonzero"
   inkscape:connector-curvature="0" />
                    <path
   id="path887"
   d="m 198,751.89 v -18 l 13.5,-13.5 v 18 z"
   style="fill:#ff5f5d;fill-rule:nonzero"
   inkscape:connector-curvature="0" />
                    <path
   id="path865"
   d="m 193.492,756.872 c 21.523,-26.177 36.963,-36.224 36.963,-36.224"
   style="fill:none;fill-rule:nonzero;stroke:#000000;stroke-width:2px"
   inkscape:connector-curvature="0" />
                    <path
   id="path867"
   d="m 216,715.89 -18,18 c 0,0 1.311,13.645 -1.039,19.001 C 203.188,750.548 216,751.89 216,751.89 l 18,-18"
   style="fill:none;fill-rule:nonzero;stroke:#000000;stroke-width:2px"
   inkscape:connector-curvature="0" />
                    <path
   id="path869"
   d="m 216,715.89 c 2.356,-2.356 5.668,-3.728 9,-3.728 3.332,0 6.644,1.372 9,3.728 2.356,2.356 3.728,5.668 3.728,9 0,3.332 -1.372,6.644 -3.728,9"
   style="fill:none;fill-rule:nonzero;stroke:#000000;stroke-width:2px"
   inkscape:connector-curvature="0" />
                    <g
   id="path883"
   transform="matrix(0.997853,0,0,1,0.492809,0)">
                        <path
   d="m 211.585,720.442 c 0,0 -0.174,10.968 -1.293,17.882 5.481,-1.162 19.208,0.066 19.208,0.066"
   style="fill:none;fill-rule:nonzero;stroke:#000000;stroke-width:2px"
   id="path13"
   inkscape:connector-curvature="0" />
                    </g>
                </g>
                <g
   id="g1462"
   transform="translate(42.3091,-4.55167)">
                    <g
   id="g1328-5"
   transform="rotate(-7.035252,21.840773,1076.6692)">
                        <g
   id="path1324-6"
   transform="translate(0.687232,0.896324)">
                            <path
   d="m 181.125,754.14 2.25,-2.25 3.375,2.25 -2.25,2.25 z"
   style="fill:#ffffff;fill-rule:nonzero;stroke:#ffffff;stroke-width:5px;stroke-linecap:butt"
   id="path17"
   inkscape:connector-curvature="0" />
                        </g>
                        <g
   id="path1247-1-7-2"
   transform="translate(0.787724,0.764681)">
                            <path
   d="m 186.75,754.14 -2.395,2.505 -3.23,-2.505"
   style="fill:#ffffff;fill-rule:nonzero;stroke:#000000;stroke-width:2px"
   id="path20"
   inkscape:connector-curvature="0" />
                        </g>
                    </g>
                    <g
   id="g1253-7"
   transform="rotate(-10.700199,78.35794,950.60854)">
                        <g
   id="path1249-0"
   transform="translate(0.293156,0.83893)">
                            <path
   d="m 175.5,745.14 4.5,-4.5 6.75,4.5 -4.5,4.5 z"
   style="fill:#ffffff;fill-rule:nonzero;stroke:#ffffff;stroke-width:5px;stroke-linecap:butt"
   id="path24"
   inkscape:connector-curvature="0" />
                        </g>
                        <g
   id="path1247-9"
   transform="translate(0.734171,0.704514)">
                            <path
   d="m 186.75,745.14 -4.766,4.911 -6.484,-4.911"
   style="fill:#ffffff;fill-rule:nonzero;stroke:#000000;stroke-width:2px"
   id="path27"
   inkscape:connector-curvature="0" />
                        </g>
                    </g>
                    <g
   id="g1011-9-8"
   transform="rotate(-12.462405,342.25976,1078.6812)">
                        <g
   id="path1007-3-7"
   transform="translate(0.407944,0.597834)">
                            <path
   d="m 209.25,684.39 9,-9 13.5,9 -9,9 z"
   style="fill:none;fill-rule:nonzero;stroke:#ffffff;stroke-width:5px;stroke-linecap:butt"
   id="path31"
   inkscape:connector-curvature="0" />
                        </g>
                        <g
   id="path1009-6-9"
   transform="translate(0.218694,0.213573)">
                            <path
   d="m 231.75,684.39 -9.281,9.287 -13.219,-9.287"
   style="fill:#ffffff;fill-rule:nonzero;stroke:#000000;stroke-width:2px"
   id="path34"
   inkscape:connector-curvature="0" />
                        </g>
                    </g>
                    <g
   id="g1011-0-2"
   transform="rotate(-10.489249,342.70627,1157.6974)">
                        <g
   id="path1007-6-0"
   transform="matrix(1.12169,0,0,1.05257,-27.029,-37.5273)">
                            <path
   d="m 209.25,684.39 9,-9 13.5,9 -9,9 z"
   style="fill:none;fill-rule:nonzero;stroke:#ffffff;stroke-width:5px;stroke-linecap:butt"
   id="path38"
   inkscape:connector-curvature="0" />
                        </g>
                        <g
   id="path1009-2-2"
   transform="matrix(1.06736,0,0,1.06341,-15.3252,-44.7996)">
                            <path
   d="m 209.25,684.39 9,-9 13.5,9 -9,9 z"
   style="fill:#ffffff;fill-rule:nonzero;stroke:#000000;stroke-width:2px;stroke-linecap:butt"
   id="path41"
   inkscape:connector-curvature="0" />
                        </g>
                    </g>
                </g>
                <g
   id="g58">
                    <g
   id="path915"
   transform="matrix(1.03922,0,0,1,-8.73683,0)">
                        <path
   d="M 188.953,741.861 189,754.14 h 33.75"
   style="fill:none;fill-rule:nonzero;stroke:#000000;stroke-width:2px;stroke-linecap:butt;stroke-linejoin:miter"
   id="path46"
   inkscape:connector-curvature="0" />
                    </g>
                    <g
   id="path1277"
   transform="matrix(1.74083,0,0,1.74083,-141.333,-543.085)">
                        <circle
   cx="189"
   cy="738.39001"
   r="1.125"
   style="fill:#ffffff;stroke:#000000;stroke-width:0.65px;stroke-linejoin:miter"
   id="circle49" />
                    </g>
                    <g
   id="path12771"
   serif:id="path1277"
   transform="matrix(1.74083,0,0,1.74083,-141.046,-531.492)">
                        <circle
   cx="189"
   cy="738.39001"
   r="1.125"
   style="fill:#ffffff;stroke:#000000;stroke-width:0.65px;stroke-linejoin:miter"
   id="circle52" />
                    </g>
                    <g
   id="path12772"
   serif:id="path1277"
   transform="matrix(1.74083,0,0,1.74083,-107.346,-531.377)">
                        <circle
   cx="189"
   cy="738.39001"
   r="1.125"
   style="fill:#ffffff;stroke:#000000;stroke-width:0.65px;stroke-linejoin:miter"
   id="circle55" />
                    </g>
                </g>
                <g
   id="g1782"
   transform="translate(-0.645626,-0.125924)">
                    <g
   id="g66">
                        <g
   id="path1675"
   transform="matrix(1.66209,0,0,1.09708,-151.379,-73.3278)">
                            <path
   d="m 228.375,751.89 1.125,-1.125 h 1.125 l 1.125,1.125 v 2.25 l -1.125,1.125 H 229.5 l -1.125,-1.125 z"
   style="fill:none;fill-rule:nonzero;stroke:#ffffff;stroke-width:2px;stroke-linecap:butt;stroke-linejoin:miter"
   id="path60"
   inkscape:connector-curvature="0" />
                        </g>
                        <g
   id="path1584-9"
   transform="matrix(1.35221,0,0,1.10373,-80.435,-78.3424)">
                            <path
   d="m 228.375,751.89 1.125,-1.125 h 1.125 l 1.125,1.125 v 2.25 l -1.125,1.125 H 229.5 l -1.125,-1.125 z"
   style="fill:#ffffff;fill-rule:nonzero;stroke:#000000;stroke-width:1.3px;stroke-linecap:butt;stroke-linejoin:miter"
   id="path63"
   inkscape:connector-curvature="0" />
                        </g>
                    </g>
                    <g
   transform="matrix(1.07938,0,0,1.07938,-17.0745,-60.5012)"
   id="g74">
                        <g
   id="path1652"
   transform="matrix(1.26014,0,0,1.12137,-60.326,-91.1481)">
                            <path
   d="m 230.625,749.64 1.125,-1.125 H 234 l 1.125,1.125 v 4.5 L 234,755.265 h -2.25 l -1.125,-1.125 z"
   style="fill:none;fill-rule:nonzero;stroke:#ffffff;stroke-width:2px;stroke-linecap:butt;stroke-linejoin:miter"
   id="path68"
   inkscape:connector-curvature="0" />
                        </g>
                        <g
   id="path1584-9-4"
   transform="translate(0.304178,0.272722)">
                            <path
   d="m 230.625,749.64 1.125,-1.125 H 234 l 1.125,1.125 v 4.5 L 234,755.265 h -2.25 l -1.125,-1.125 z"
   style="fill:#ffffff;fill-rule:nonzero;stroke:#000000;stroke-width:1.48px;stroke-linecap:butt;stroke-linejoin:miter"
   id="path71"
   inkscape:connector-curvature="0" />
                        </g>
                    </g>
                    <g
   id="g1650"
   transform="matrix(1.14782,0,0,1.14782,-50.6704,-110.643)">
                        <g
   id="path1646"
   transform="matrix(1.10033,0,0,1.02536,-25.4702,-19.3431)">
                            <path
   d="m 249.75,745.14 1.125,-1.125 h 4.5 l 1.125,1.125 v 7.875 l -1.125,1.125 h -4.5 l -1.125,-1.125 z"
   style="fill:#ffffff;fill-rule:nonzero;stroke:#ffffff;stroke-width:3px;stroke-linecap:butt;stroke-linejoin:miter"
   id="path76"
   inkscape:connector-curvature="0" />
                        </g>
                        <path
   id="path1584-9-4-8"
   d="m 249.75,745.14 1.125,-1.125 h 4.5 l 1.125,1.125 v 7.875 l -1.125,1.125 h -4.5 l -1.125,-1.125 z"
   style="fill:none;fill-rule:nonzero;stroke:#000000;stroke-width:1.39px;stroke-linecap:butt;stroke-linejoin:miter"
   inkscape:connector-curvature="0" />
                    </g>
                    <g
   id="g1720"
   transform="matrix(1.1863,0,0,1.1863,-48.1637,-141.068)">
                        <g
   id="path1716"
   transform="matrix(1.05981,0,0,0.993907,-15.0325,4.51405)">
                            <path
   d="m 243,742.89 1.125,-1.125 h 6.75 L 252,742.89 v 11.25 l -1.125,1.125 h -6.75 L 243,754.14 Z"
   style="fill:none;fill-rule:nonzero;stroke:#ffffff;stroke-width:3px;stroke-linecap:butt;stroke-linejoin:miter"
   id="path81"
   inkscape:connector-curvature="0" />
                        </g>
                        <g
   id="path1584-9-4-8-5"
   transform="matrix(1.0025,0,0,1,-0.607715,0)">
                            <path
   d="m 243,742.89 1.125,-1.125 h 6.75 L 252,742.89 v 11.25 l -1.125,1.125 h -6.75 L 243,754.14 Z"
   style="fill:#ffffff;fill-rule:nonzero;stroke:#000000;stroke-width:1.35px;stroke-linecap:butt;stroke-linejoin:miter"
   id="path84"
   inkscape:connector-curvature="0" />
                        </g>
                    </g>
                </g>
            </g>
        </g>
    </g><flowRoot
           xml:space="preserve"
           id="flowRoot884"
           style="font-style:normal;font-variant:normal;font-weight:normal;font-stretch:normal;font-size:48px;line-height:1.25;font-family:palatino;-inkscape-font-specification:palatino;letter-spacing:0px;word-spacing:0px;fill:#000000;fill-opacity:1;stroke:none"
           transform="translate(-237.26589,-922.4083)"><flowRegion
             id="flowRegion886"
             style="font-style:normal;font-variant:normal;font-weight:normal;font-stretch:normal;font-size:48px;font-family:palatino;-inkscape-font-specification:palatino"><rect
               id="rect888"
               width="180"
               height="81"
               x="333"
               y="933.51971"
               style="font-style:normal;font-variant:normal;font-weight:normal;font-stretch:normal;font-size:48px;font-family:palatino;-inkscape-font-specification:palatino" /></flowRegion><flowPara
             id="flowPara890">Plom</flowPara></flowRoot></g></g></g></g></svg>
